<svg id="digiadl" xmlns="http://www.w3.org/2000/svg" viewBox="0 0 265.4 99.4"><defs><style>.cls-1{fill:#1ebc47;}.cls-2{fill:#fff;}</style></defs><path d="M41.9,96.09q-11.17-3-13.72-8.06a21,21,0,0,1-2.56-9.29,21.19,21.19,0,0,1,1-6.27,38.91,38.91,0,0,1,8.14-14.18,7.13,7.13,0,0,1,5-2.31l1,.08c3.27.53,4.9,2.12,4.9,4.75,0,1.39-.75,2.93-2.23,4.61a47.37,47.37,0,0,0-6.52,8.28,14.31,14.31,0,0,0-2.48,7.2,8.26,8.26,0,0,0,.28,2.16q1.08,4,8.86,6a26.86,26.86,0,0,0,6.12.71,27.13,27.13,0,0,0,5.54-.57,17.45,17.45,0,0,0,9.58-4.9,16.06,16.06,0,0,0,3.56-9.18A102.22,102.22,0,0,0,69,64.34c0-1.83,0-3.7-.15-5.62q-.43-8.2-1.15-15.12c-.29-3-.49-5.46-.58-7.49a3,3,0,0,1,1.59-3,6.84,6.84,0,0,1,2.73-.72,5.7,5.7,0,0,1,2,.36,3.38,3.38,0,0,1,2.37,3q.87,12.11.94,17.5t.07,6.69a104,104,0,0,1-1.15,15.77q-1.36,8.72-5.54,13.54a21.68,21.68,0,0,1-10.88,6.41A47,47,0,0,1,49.45,97,33.67,33.67,0,0,1,41.9,96.09Z" transform="translate(-25.62 -32.39)"/><path d="M82.14,87.3a4.45,4.45,0,0,1-2.88-4.46,5,5,0,0,1,.15-1.22,2.58,2.58,0,0,1,1.37-2c1.77-.62,3.6-1.2,5.47-1.72a43.89,43.89,0,0,0,9.61-3.5c2.47-1.33,3.7-3,3.71-5.07a6.55,6.55,0,0,0-.22-1.59q-1-4.24-10.44-11.88A3.8,3.8,0,0,1,87.4,53.1l.07-.5a3,3,0,0,1,1.37-2.23,3.82,3.82,0,0,1,1.58-.51,4.38,4.38,0,0,1,2.38.87q12.53,10.16,13.61,18a3.28,3.28,0,0,0,3.17,1.58l.07,7.13a12.81,12.81,0,0,1-5.19-.94Q100.14,82.62,87.33,87a10.89,10.89,0,0,1-3.39.64A4.27,4.27,0,0,1,82.14,87.3Z" transform="translate(-25.62 -32.39)"/><path d="M109.43,77.44a12.32,12.32,0,0,1-.5-3.67,10.44,10.44,0,0,1,.5-3.46,36.85,36.85,0,0,0,6.55-.5,18.63,18.63,0,0,1-2.66-10.08l.07-1.58q.64-7.78,4.39-11.42t7.49-3.63q6.27,0,9.22,8.64A4.49,4.49,0,0,1,134.7,53a1.78,1.78,0,0,1-.57,1.44,1,1,0,0,1-.72.29A4.41,4.41,0,0,1,131,53.54c-2.4-2.07-4.35-3.1-5.83-3.1a2.43,2.43,0,0,0-1,.22,4.18,4.18,0,0,0-3,3.34,23.24,23.24,0,0,0-.47,4.15,19.51,19.51,0,0,0,.36,3.74,8.37,8.37,0,0,0,2.45,5,56.6,56.6,0,0,0,9.07-7.56l2.13-1.95a3.35,3.35,0,0,1,2.27-1,3.1,3.1,0,0,1,1.37.36,4.36,4.36,0,0,1,2.52,4,4,4,0,0,1-1.16,2.66A85.26,85.26,0,0,1,130.6,71a36.69,36.69,0,0,1-9.47,4.79,37.23,37.23,0,0,1-11.63,1.65Z" transform="translate(-25.62 -32.39)"/><path d="M156.52,93a15.87,15.87,0,0,1-6.81-8.2,30.41,30.41,0,0,1-1.54-9.37,23.5,23.5,0,0,1,.14-3.09,62.84,62.84,0,0,1,2.45-12.53c.53-1.49,1.77-2.25,3.74-2.3a10.08,10.08,0,0,1,5.22,1.36q2.34,1.38,2.34,3.24a48.36,48.36,0,0,1-1.58,5.4A50.12,50.12,0,0,0,158,76.58q-.39,3.09-.39,3.81a9.15,9.15,0,0,0,3.17,7.2,16.43,16.43,0,0,0,9.43,2.67,23.21,23.21,0,0,0,11.73-2.88c2.36-1.44,3.53-2.86,3.53-4.25l-.07-.43a5.69,5.69,0,0,0-3.07-3.7,10.18,10.18,0,0,0-5-1.51c-2,0-3.12-.4-3.46-1.19a5,5,0,0,1-.5-1.83,3.66,3.66,0,0,1,.86-2.23c.91-1.16,2.5-1.78,4.75-1.88h16.13v7.13H190.5a9.9,9.9,0,0,1,2.5,6.07,6.09,6.09,0,0,1-.29,1.94,13.39,13.39,0,0,1-5,7A25.22,25.22,0,0,1,172.57,97Q163.15,97,156.52,93Z" transform="translate(-25.62 -32.39)"/><path d="M226.72,77.44a24.22,24.22,0,0,1-5.76-.57,11.8,11.8,0,0,1-4.9-2.89,25.55,25.55,0,0,1-9.47,3,96.17,96.17,0,0,1-9.75.5h-2a9.22,9.22,0,0,1-.64-3.6,8.38,8.38,0,0,1,.64-3.53h2.52a52.34,52.34,0,0,0,10.59-1q5.84-1.14,10.08-6.76a7.54,7.54,0,0,0,1.7-4.59c0-2.59-1.36-4.39-4.1-5.4a7.13,7.13,0,0,0-1.66-.22q-4.6,0-7.7,9.58l-.79,1.87C204.76,65.27,204,66,203.25,66H202a5.58,5.58,0,0,1-3.6-1.29,2.87,2.87,0,0,1-1.08-2.24,3.72,3.72,0,0,1,.29-1.36q5.19-11.74,9.83-14c3.09-1.49,5.58-2.23,7.45-2.23a9.86,9.86,0,0,1,5,1.37q4.89,2.88,5.87,6.58a24,24,0,0,1,1,5.37c0,3.88-1.68,7.61-5,11.16a4.76,4.76,0,0,0,2.12.79,34,34,0,0,0,3.64.14v7.13ZM210.88,93.28c-2.79-.43-4.19-2-4.18-4.68a4.93,4.93,0,0,1,.43-2,3.39,3.39,0,0,1,3.39-1.87h.36c3.41.53,5.12,2.14,5.11,4.83a3.91,3.91,0,0,1-.58,2c-.67,1.16-2,1.73-3.88,1.73Z" transform="translate(-25.62 -32.39)"/><path d="M227.22,77.44a10.15,10.15,0,0,1-.36-3,16.32,16.32,0,0,1,.43-4.18h1.8a29.77,29.77,0,0,0,6.84-.83,10.91,10.91,0,0,0,5-2.23,4,4,0,0,0,1.47-2.77,5.22,5.22,0,0,0-.5-2.09,24.52,24.52,0,0,0-5.83-6.19l-2.45-2.09a3.66,3.66,0,0,1-1.15-2.52,2.82,2.82,0,0,1,.14-.86,3.37,3.37,0,0,1,3.46-2.81,4.1,4.1,0,0,1,2.16.72,53,53,0,0,1,5.47,4.79A23.63,23.63,0,0,1,248.09,59a11.07,11.07,0,0,1,1.44,5.11,8.47,8.47,0,0,1-1.15,4.25A16.83,16.83,0,0,1,240.51,75a27.43,27.43,0,0,1-11.42,2.45Zm0,12.24a5.85,5.85,0,0,1-.36-1.94,5.94,5.94,0,0,1,.36-2,3.35,3.35,0,0,1,2.95-2.3l7.64.14a3,3,0,0,1,2.88,1.51,4,4,0,0,1,.5,1.88c0,1.91-1,3-3,3.38L230,91.48A2.75,2.75,0,0,1,227.22,89.68Z" transform="translate(-25.62 -32.39)"/><path class="cls-1" d="M263.62,37.91c-11.71,3.44-12.5,26.54-12.6,29.28-.06,1.74-.65,24.81,9.19,28.25,10.37,3.63,33-14.3,30.64-33.36C289.13,47.9,273.85,34.91,263.62,37.91Z" transform="translate(-25.62 -32.39)"/><path class="cls-2" d="M259.4,84a6.58,6.58,0,0,1-2.13-3.21A15.21,15.21,0,0,1,257,79a2.77,2.77,0,0,1,1.73-2.6l2.59-.79a69.61,69.61,0,0,0,7.14-2.27,14.68,14.68,0,0,0,5.68-3.25,5.19,5.19,0,0,0,1.65-3.31,6.55,6.55,0,0,0-1.08-3.23,17.64,17.64,0,0,0-3.38-3.78,50.22,50.22,0,0,0-4.75-3.35,3.92,3.92,0,0,1-1.8-3.31v-.44a5,5,0,0,1,1.47-3.49,3.56,3.56,0,0,1,2.2-1.11,3.42,3.42,0,0,1,1.87.64l3.75,3.61q8.76,7.7,8.78,14.1a8.71,8.71,0,0,1-.65,3.24c-1.34,3.17-3.89,6-7.63,8.64L273,79.39c-2.21,1.63-3.95,2.86-5.23,3.67a22.1,22.1,0,0,1-4.21,2,3.68,3.68,0,0,1-1.22.21A4.27,4.27,0,0,1,259.4,84Z" transform="translate(-25.62 -32.39)"/><text x="-25.62" y="-32.39"/></svg>
