<svg width="213" height="52" viewBox="0 0 213 52" fill="none" xmlns="http://www.w3.org/2000/svg">
<path d="M13.9097 50.7873C7.97252 49.1927 4.32626 47.0506 2.97087 44.3611C1.72559 42.0838 1.02685 39.5481 0.92981 36.9543C0.943002 35.2574 1.21178 33.5721 1.7271 31.9553C3.06527 27.7697 5.27741 23.9161 8.21702 20.6498C8.72618 20.0938 9.34084 19.6446 10.0252 19.3284C10.7096 19.0122 11.4501 18.8353 12.2035 18.808L13.0008 18.8718C15.6079 19.2944 16.9075 20.5621 16.9075 22.6589C16.9075 23.7672 16.3095 24.995 15.1295 26.3344C13.1566 28.3347 11.413 30.549 9.93119 32.936C8.76572 34.6358 8.08243 36.6195 7.95392 38.6765C7.95199 39.2578 8.02705 39.8369 8.17716 40.3986C8.75121 42.5247 11.1059 44.1193 15.2411 45.1823C16.8405 45.5575 18.4777 45.7475 20.1205 45.7484C21.6046 45.7488 23.0847 45.5965 24.5375 45.2939C27.4315 44.8288 30.1046 43.4615 32.1755 41.3872C33.8646 39.3049 34.8574 36.7448 35.0139 34.0681C35.3326 31.2141 35.5003 28.3451 35.5162 25.4734C35.5162 24.0143 35.5162 22.5234 35.3966 20.9926C35.168 16.6341 34.8624 12.6158 34.4797 8.9376C34.2485 6.54574 34.089 4.58441 34.0173 2.96592C33.9622 2.48584 34.0539 2.00035 34.2802 1.57339C34.5065 1.14643 34.8568 0.798021 35.285 0.574051C35.9627 0.233416 36.704 0.0379013 37.4616 2.86539e-06C38.006 -0.000608483 38.5461 0.0966113 39.0561 0.287027C39.5757 0.448366 40.0343 0.763203 40.3716 1.19013C40.7089 1.61705 40.909 2.13606 40.9457 2.67889C41.4081 9.11567 41.6579 13.7665 41.6952 16.6314C41.7324 19.4964 41.751 21.2743 41.751 21.9653C41.7648 26.1736 41.4583 30.3768 40.8341 34.5385C40.1112 39.1734 38.6389 42.7719 36.4171 45.3338C34.0968 47.8604 31.0772 49.6394 27.7426 50.4444C25.183 51.0744 22.564 51.4325 19.9292 51.5128C17.9017 51.499 15.8823 51.2556 13.9097 50.7873Z" fill="#7F8092"/>
<path d="M45.9927 43.7782C45.2787 43.5109 44.6698 43.0207 44.2562 42.3802C43.8427 41.7397 43.6464 40.983 43.6965 40.2223C43.6962 39.8944 43.7364 39.5677 43.8161 39.2496C43.8536 38.9147 43.9728 38.5941 44.1633 38.316C44.3538 38.038 44.6096 37.811 44.9084 37.655C46.3196 37.1607 47.7786 36.6983 49.2696 36.2837C51.9236 35.6553 54.495 34.7188 56.9315 33.4932C58.9008 32.4328 59.8815 31.1013 59.8894 29.4509C59.8832 29.0228 59.8243 28.597 59.714 28.1832C59.1825 25.9296 56.408 22.7723 51.3904 18.7115C51.0442 18.4519 50.7576 18.1212 50.55 17.7416C50.3423 17.3621 50.2184 16.9424 50.1864 16.5109L50.2423 16.1123C50.2782 15.7527 50.3951 15.4059 50.5843 15.0979C50.7735 14.79 51.03 14.5289 51.3345 14.3344C51.7196 14.1081 52.1496 13.9693 52.5943 13.9277C53.2813 13.9669 53.9414 14.2082 54.4918 14.6214C61.1518 20.0217 64.7689 24.8054 65.3429 28.9726C65.5994 29.4024 65.9739 29.7496 66.4219 29.9729C66.87 30.1962 67.3726 30.2862 67.8703 30.2323L67.9261 35.9169C66.5097 35.9569 65.1006 35.7016 63.7882 35.1675C61.492 38.4204 56.9395 41.2109 50.1306 43.539C49.2625 43.8516 48.3502 44.0239 47.4278 44.0493C46.9355 44.0638 46.4458 43.9713 45.9927 43.7782Z" fill="#7F8092"/>
<path d="M67.7509 35.918C67.4713 34.9683 67.3369 33.9818 67.3522 32.9919C67.3291 32.0565 67.4639 31.1239 67.7509 30.2333C69.5 30.2561 71.2477 30.1227 72.9731 29.8347C71.5158 27.4122 70.78 24.6241 70.8523 21.798L70.9081 20.5383C71.2483 16.403 72.415 13.368 74.4082 11.4332C76.4014 9.49849 78.392 8.53377 80.3799 8.53908C83.7126 8.53908 86.1629 10.8353 87.7309 15.4277C87.8343 15.7528 87.8907 16.0911 87.8983 16.4322C87.914 16.6455 87.8812 16.8595 87.8025 17.0583C87.7238 17.2571 87.6012 17.4356 87.4439 17.5803C87.3684 17.6552 87.2788 17.7142 87.1802 17.7539C87.0816 17.7936 86.9761 17.8132 86.8698 17.8115C86.1462 17.7029 85.4745 17.3713 84.9484 16.8628C83.0349 15.2124 81.4802 14.3912 80.3002 14.3912C80.025 14.3924 79.7532 14.4522 79.5029 14.5666C78.8922 14.737 78.3428 15.078 77.9191 15.5497C77.4954 16.0214 77.2151 16.6041 77.111 17.2295C76.8871 18.319 76.7616 19.4263 76.7363 20.5383C76.7358 21.5391 76.8319 22.5377 77.0233 23.5201C77.2004 25.0329 77.8897 26.4396 78.9767 27.5066C81.5907 25.755 84.0143 23.7349 86.2081 21.4791L87.9063 19.9244C88.3853 19.4368 89.0331 19.1515 89.7161 19.1271C90.0975 19.1372 90.4714 19.2354 90.8084 19.4141C91.4145 19.6962 91.9264 20.1471 92.2828 20.7127C92.6391 21.2784 92.8248 21.9348 92.8176 22.6033C92.7857 23.401 92.4556 24.1578 91.8927 24.724C89.6153 26.91 87.1883 28.9347 84.6295 30.7834C82.3111 32.4156 79.7677 33.7021 77.0791 34.6024C74.0774 35.5289 70.9476 35.9729 67.8067 35.918H67.7509Z" fill="#7F8092"/>
<path d="M105.295 48.3241C102.786 46.836 100.868 44.5264 99.8656 41.7864C99.0677 39.3758 98.6533 36.8549 98.6378 34.3158C98.6209 33.493 98.6581 32.67 98.7494 31.8522C99.0597 28.4645 99.7142 25.1172 100.703 21.8621C101.125 20.6742 102.114 20.0682 103.685 20.0284C105.145 20.005 106.583 20.3799 107.846 21.1127C109.09 21.8462 109.712 22.7073 109.712 23.6959C109.376 25.1543 108.956 26.5918 108.452 28.0013C107.568 30.3444 106.906 32.7656 106.475 35.2327C106.268 36.8751 106.164 37.8876 106.164 38.2703C106.132 39.3549 106.342 40.433 106.779 41.4261C107.217 42.4191 107.87 43.3021 108.692 44.0108C110.923 45.4687 113.546 46.2114 116.21 46.1396C119.475 46.2129 122.702 45.4207 125.562 43.8434C127.444 42.6953 128.377 41.5631 128.377 40.4549L128.321 40.1121C128.153 39.4715 127.847 38.8755 127.424 38.3659C127.001 37.8562 126.472 37.4454 125.873 37.1621C124.672 36.4209 123.298 36.006 121.887 35.9582C120.292 35.9582 119.399 35.6393 119.128 35.0094C118.903 34.553 118.768 34.0577 118.729 33.5504C118.753 32.8977 118.994 32.2717 119.415 31.7724C120.141 30.8476 121.408 30.3533 123.202 30.2735H136.063V35.9582H132.387C133.582 37.2977 134.286 39.0048 134.38 40.7977C134.387 41.3224 134.309 41.8448 134.149 42.3445C133.47 44.5926 132.069 46.5542 130.163 47.9255C126.627 50.383 122.396 51.6406 118.092 51.5133C113.085 51.5133 108.819 50.4502 105.295 48.3241Z" fill="#7F8092"/>
<path d="M161.264 35.9187C159.721 35.9513 158.179 35.7988 156.672 35.4642C155.201 35.0263 153.86 34.2352 152.765 33.1601C150.429 34.4437 147.864 35.2563 145.215 35.5519C142.632 35.8163 140.038 35.9494 137.441 35.9506H135.847C135.487 35.0375 135.313 34.0616 135.337 33.0803C135.302 32.1164 135.476 31.1562 135.847 30.2659H137.856C140.69 30.2876 143.519 30.0204 146.299 29.4686C149.403 28.8627 152.082 27.0661 154.336 24.079C155.182 23.0438 155.659 21.756 155.691 20.4194C155.691 18.3544 154.607 16.9193 152.423 16.114C151.99 16.0038 151.546 15.9449 151.099 15.9386C148.654 15.9386 146.608 18.4847 144.96 23.5767L144.33 25.0676C143.756 26.2157 143.15 26.7977 142.552 26.7977H141.555C140.507 26.8037 139.491 26.4394 138.685 25.7692C138.417 25.5552 138.2 25.2835 138.051 24.9744C137.902 24.6652 137.825 24.3265 137.824 23.9833C137.832 23.6105 137.911 23.2427 138.055 22.899C140.814 16.6589 143.426 12.9382 145.893 11.7369C148.356 10.549 150.342 9.95898 151.833 9.95898C153.235 9.96097 154.611 10.3381 155.819 11.0513C158.418 12.5821 159.978 14.3308 160.499 16.2974C160.927 17.6896 161.194 19.126 161.296 20.5789C161.296 23.6723 159.957 26.6462 157.31 29.4766C157.815 29.8193 158.394 30.0354 159 30.1065C159.965 30.1955 160.934 30.2328 161.902 30.2181V35.9027L161.264 35.9187ZM148.635 48.5477C146.411 48.2049 145.295 46.9532 145.303 44.8164C145.304 44.2668 145.421 43.7236 145.646 43.2219C145.89 42.7271 146.28 42.3191 146.763 42.0526C147.246 41.7861 147.8 41.6738 148.348 41.7309H148.635C151.354 42.1535 152.718 43.4371 152.71 45.5818C152.702 46.1454 152.543 46.6964 152.247 47.1764C151.713 48.1013 150.653 48.5557 149.154 48.5557L148.635 48.5477Z" fill="#7F8092"/>
<path d="M161.663 35.9179C161.448 35.1394 161.352 34.3331 161.376 33.526C161.346 32.405 161.461 31.2848 161.719 30.1933H163.154C164.991 30.1846 166.821 29.9625 168.607 29.5316C170.066 29.2874 171.438 28.6755 172.594 27.7536C172.928 27.4834 173.204 27.1485 173.405 26.769C173.607 26.3895 173.729 25.9732 173.766 25.5451C173.75 24.9681 173.614 24.4006 173.367 23.8788C172.117 21.9756 170.544 20.3054 168.719 18.9436L166.766 17.2773C166.209 16.7535 165.879 16.0321 165.849 15.2681C165.85 15.0351 165.888 14.8038 165.96 14.5824C166.069 13.9371 166.408 13.3535 166.916 12.941C167.424 12.5285 168.065 12.3156 168.719 12.342C169.336 12.367 169.933 12.566 170.441 12.9161C171.981 14.0878 173.438 15.3638 174.802 16.7351C176.189 18.043 177.369 19.5538 178.302 21.2159C179.01 22.4607 179.404 23.8589 179.45 25.29C179.449 26.4806 179.133 27.6496 178.534 28.6785C177.046 31.0554 174.852 32.9067 172.259 33.9725C169.399 35.2697 166.294 35.9359 163.154 35.9258L161.663 35.9179ZM161.663 45.6767C161.48 45.1811 161.383 44.658 161.376 44.1299C161.379 43.5859 161.476 43.0464 161.663 42.5354C161.828 42.0304 162.14 41.5863 162.559 41.2596C162.978 40.933 163.485 40.7387 164.015 40.7016L170.106 40.8132C170.564 40.7719 171.024 40.8635 171.432 41.0771C171.839 41.2906 172.176 41.617 172.402 42.0171C172.657 42.4763 172.794 42.9912 172.801 43.516C172.801 45.0388 172.004 45.9079 170.409 46.2109L163.879 47.1118C163.404 47.1459 162.931 47.0242 162.531 46.7653C162.131 46.5064 161.826 46.1242 161.663 45.6767Z" fill="#7F8092"/>
<path d="M190.685 4.40169C181.349 7.14436 180.719 25.5617 180.639 27.7463C180.591 29.1336 180.121 47.527 187.966 50.2697C196.234 53.1638 214.277 38.8685 212.395 23.6721C211.024 12.3666 198.841 2.00983 190.685 4.40169Z" fill="#26228C"/>
<path d="M187.32 41.1475C186.511 40.483 185.92 39.5917 185.622 38.5882C185.522 38.1172 185.45 37.6407 185.407 37.1611C185.401 36.7169 185.53 36.2815 185.776 35.9117C186.022 35.5419 186.374 35.2549 186.786 35.0882L188.851 34.4583C190.78 33.9576 192.68 33.3535 194.544 32.6484C196.229 32.1365 197.777 31.2507 199.072 30.0573C199.82 29.369 200.288 28.4296 200.388 27.4182C200.333 26.4989 200.036 25.6105 199.527 24.843C198.778 23.7139 197.871 22.6988 196.832 21.8292C195.622 20.8666 194.358 19.9748 193.045 19.1583C192.603 18.8744 192.24 18.4838 191.989 18.0225C191.738 17.5613 191.608 17.0443 191.61 16.5193V16.1685C191.62 15.1232 192.041 14.1239 192.782 13.386C193.242 12.8916 193.864 12.5778 194.536 12.501C195.072 12.5206 195.591 12.6981 196.027 13.0112L199.016 15.8895C203.673 19.9822 206.006 23.7295 206.017 27.1312C206.01 28.0175 205.834 28.8943 205.498 29.7144C204.43 32.2418 202.397 34.4982 199.415 36.603L198.163 37.472C196.401 38.7716 195.014 39.7523 193.993 40.3981C192.934 41.0464 191.809 41.5809 190.637 41.9927C190.324 42.103 189.996 42.1596 189.664 42.1601C188.781 42.1395 187.941 41.7764 187.32 41.1475Z" fill="white"/>
</svg>
