<svg width="103" height="25" viewBox="0 0 103 25" fill="none" xmlns="http://www.w3.org/2000/svg">
<path d="M6.29822 24.6435C3.41734 23.8698 1.64806 22.8304 0.990383 21.5254C0.386139 20.4203 0.0470856 19.1899 0 17.9314C0.00640156 17.108 0.136821 16.2902 0.386869 15.5057C1.03619 13.4747 2.10959 11.6048 3.53598 10.0199C3.78303 9.75011 4.08129 9.53217 4.41337 9.37874C4.74546 9.22532 5.10475 9.13948 5.47032 9.12623L5.85719 9.15718C7.12225 9.36222 7.75285 9.97734 7.75285 10.9948C7.75285 11.5326 7.46269 12.1283 6.89013 12.7783C5.9328 13.7489 5.08678 14.8233 4.36775 15.9815C3.80222 16.8063 3.47067 17.7689 3.40831 18.767C3.40738 19.0491 3.4438 19.3301 3.51663 19.6026C3.79518 20.6343 4.93773 21.408 6.94429 21.9238C7.72035 22.1059 8.51479 22.1981 9.31193 22.1985C10.032 22.1987 10.7502 22.1248 11.4552 21.978C12.8594 21.7523 14.1565 21.0889 15.1614 20.0823C15.981 19.0719 16.4627 17.8297 16.5386 16.5309C16.6933 15.146 16.7747 13.7539 16.7824 12.3605C16.7824 11.6525 16.7824 10.929 16.7243 10.1863C16.6134 8.07137 16.4651 6.12155 16.2794 4.3368C16.1672 3.17619 16.0899 2.2245 16.055 1.43915C16.0283 1.20621 16.0728 0.970631 16.1826 0.763457C16.2924 0.556282 16.4624 0.387224 16.6702 0.278547C16.999 0.113261 17.3587 0.0183909 17.7263 1.39037e-06C17.9905 -0.000295255 18.2526 0.0468788 18.5001 0.139274C18.7522 0.217561 18.9747 0.37033 19.1384 0.577486C19.302 0.784641 19.3991 1.03648 19.4169 1.29988C19.6413 4.4232 19.7625 6.67993 19.7806 8.07008C19.7986 9.46023 19.8077 10.3229 19.8077 10.6582C19.8144 12.7002 19.6657 14.7397 19.3628 16.7591C19.012 19.0081 18.2976 20.7542 17.2195 21.9973C16.0936 23.2233 14.6284 24.0865 13.0104 24.4772C11.7684 24.7828 10.4976 24.9566 9.21908 24.9956C8.23529 24.9889 7.25542 24.8708 6.29822 24.6435Z" fill="#7F8092"/>
<path d="M21.8667 21.2432C21.5202 21.1134 21.2248 20.8756 21.0241 20.5648C20.8234 20.254 20.7282 19.8869 20.7525 19.5177C20.7524 19.3586 20.7719 19.2001 20.8105 19.0457C20.8287 18.8832 20.8866 18.7277 20.979 18.5927C21.0714 18.4578 21.1956 18.3477 21.3405 18.272C22.0253 18.0321 22.7333 17.8078 23.4567 17.6066C24.7445 17.3017 25.9923 16.8472 27.1745 16.2525C28.1301 15.738 28.6059 15.0919 28.6098 14.2911C28.6068 14.0834 28.5782 13.8768 28.5247 13.676C28.2668 12.5824 26.9205 11.0505 24.4858 9.08C24.3178 8.95406 24.1788 8.79359 24.078 8.60942C23.9772 8.42524 23.9171 8.22161 23.9016 8.01224L23.9287 7.81881C23.9461 7.64431 24.0029 7.47603 24.0947 7.32661C24.1865 7.17718 24.3109 7.05051 24.4587 6.95609C24.6455 6.84631 24.8542 6.77895 25.07 6.75879C25.4033 6.77781 25.7237 6.8949 25.9907 7.09536C29.2223 9.71575 30.9774 12.037 31.256 14.059C31.3805 14.2676 31.5622 14.436 31.7796 14.5444C31.997 14.6527 32.2409 14.6964 32.4824 14.6703L32.5094 17.4286C31.8222 17.448 31.1384 17.3242 30.5016 17.065C29.3874 18.6434 27.1784 19.9974 23.8745 21.1271C23.4533 21.2788 23.0106 21.3624 22.563 21.3747C22.3241 21.3817 22.0866 21.3369 21.8667 21.2432Z" fill="#7F8092"/>
<path d="M32.4225 17.4286C32.2868 16.9678 32.2216 16.4891 32.229 16.0088C32.2178 15.5549 32.2832 15.1024 32.4225 14.6703C33.2712 14.6813 34.1192 14.6166 34.9564 14.4768C34.2493 13.3014 33.8923 11.9485 33.9274 10.5772L33.9544 9.96594C34.1195 7.95938 34.6856 6.4867 35.6528 5.5479C36.62 4.6091 37.5859 4.14099 38.5504 4.14357C40.1676 4.14357 41.3565 5.25775 42.1174 7.48611C42.1676 7.64389 42.1949 7.80804 42.1986 7.97357C42.2062 8.07704 42.1903 8.18088 42.1521 8.27735C42.1139 8.37382 42.0545 8.46041 41.9781 8.53066C41.9415 8.56698 41.898 8.59561 41.8502 8.61488C41.8023 8.63415 41.7511 8.64366 41.6996 8.64285C41.3484 8.59014 41.0225 8.42921 40.7672 8.18248C39.8387 7.38166 39.0843 6.98318 38.5118 6.98318C38.3782 6.98375 38.2463 7.01277 38.1249 7.06829C37.8286 7.15097 37.562 7.31645 37.3564 7.54532C37.1508 7.7742 37.0148 8.05696 36.9643 8.36043C36.8556 8.88906 36.7948 9.4264 36.7825 9.96594C36.7822 10.4516 36.8289 10.9361 36.9217 11.4128C37.0077 12.1469 37.3421 12.8295 37.8696 13.3472C39.138 12.4973 40.314 11.517 41.3785 10.4224L42.2025 9.66805C42.4349 9.43148 42.7492 9.29302 43.0807 9.28118C43.2657 9.28608 43.4471 9.33375 43.6107 9.42045C43.9048 9.55734 44.1532 9.77612 44.3261 10.0506C44.499 10.325 44.5891 10.6436 44.5856 10.9679C44.5701 11.355 44.41 11.7222 44.1368 11.997C43.0317 13.0577 41.8541 14.0402 40.6125 14.9372C39.4875 15.7292 38.2534 16.3534 36.9488 16.7903C35.4923 17.2398 33.9736 17.4553 32.4495 17.4286H32.4225Z" fill="#7F8092"/>
<path d="M50.6412 23.4482C49.4236 22.7262 48.4928 21.6055 48.0066 20.2759C47.6195 19.1063 47.4184 17.883 47.4109 16.651C47.4026 16.2517 47.4207 15.8524 47.465 15.4555C47.6156 13.8117 47.9332 12.1875 48.4128 10.6081C48.6179 10.0316 49.0976 9.73762 49.8597 9.71827C50.5682 9.70694 51.2663 9.88883 51.8792 10.2444C52.4827 10.6003 52.7845 11.0182 52.7845 11.4979C52.6214 12.2055 52.4173 12.903 52.1732 13.587C51.7441 14.7239 51.4229 15.8987 51.2138 17.0959C51.1132 17.8928 51.0629 18.3841 51.0629 18.5698C51.0473 19.0961 51.1493 19.6192 51.3615 20.1011C51.5736 20.5829 51.8906 21.0114 52.2893 21.3553C53.3719 22.0627 54.6446 22.4231 55.9374 22.3882C57.5219 22.4238 59.0876 22.0394 60.4754 21.274C61.3884 20.7169 61.8411 20.1676 61.8411 19.6298L61.814 19.4635C61.7325 19.1527 61.5839 18.8635 61.3787 18.6162C61.1736 18.3689 60.9167 18.1695 60.6263 18.0321C60.0433 17.6724 59.3766 17.4711 58.692 17.4479C57.9182 17.4479 57.4849 17.2932 57.3534 16.9875C57.2443 16.7661 57.1787 16.5257 57.1599 16.2796C57.1712 15.9629 57.2883 15.6591 57.4927 15.4168C57.8447 14.9681 58.4598 14.7282 59.3303 14.6895H65.5705V17.4479H63.787C64.3671 18.0979 64.7083 18.9262 64.7542 19.7962C64.7576 20.0508 64.7197 20.3043 64.642 20.5467C64.3126 21.6376 63.6327 22.5894 62.7076 23.2548C60.992 24.4473 58.9389 25.0575 56.8505 24.9957C54.4209 24.9957 52.3512 24.4799 50.6412 23.4482Z" fill="#7F8092"/>
<path d="M77.7998 17.4285C77.0509 17.4443 76.3027 17.3703 75.5714 17.208C74.8578 16.9954 74.207 16.6116 73.6758 16.0899C72.5422 16.7127 71.2975 17.1071 70.0121 17.2505C68.7589 17.3788 67.4999 17.4434 66.2402 17.4439H65.4664C65.2917 17.0009 65.2075 16.5273 65.2188 16.0512C65.2018 15.5835 65.2863 15.1176 65.4664 14.6856H66.4413C67.8166 14.6961 69.1893 14.5665 70.5383 14.2987C72.0445 14.0047 73.3444 13.1329 74.4379 11.6835C74.8485 11.1812 75.0799 10.5563 75.0956 9.90775C75.0956 8.90576 74.5694 8.20939 73.5094 7.81866C73.2994 7.76516 73.0839 7.73659 72.8672 7.73355C71.6808 7.73355 70.6879 8.96895 69.8883 11.4397L69.5827 12.1632C69.3042 12.7203 69.0101 13.0027 68.72 13.0027H68.2364C67.7279 13.0056 67.2346 12.8288 66.8437 12.5036C66.7135 12.3998 66.6084 12.268 66.536 12.1179C66.4637 11.9679 66.426 11.8036 66.4259 11.637C66.4298 11.4562 66.4679 11.2777 66.538 11.1109C67.8766 8.08302 69.1442 6.27763 70.341 5.69475C71.5364 5.11831 72.4997 4.83203 73.2231 4.83203C73.9036 4.83299 74.5715 5.01599 75.1575 5.36204C76.4187 6.10483 77.1756 6.95336 77.4284 7.90764C77.636 8.58315 77.7658 9.28016 77.8153 9.98512C77.8153 11.4862 77.1653 12.9292 75.8809 14.3026C76.1258 14.4689 76.4071 14.5737 76.7011 14.6082C77.1692 14.6514 77.6393 14.6695 78.1093 14.6624V17.4207L77.7998 17.4285ZM71.6718 23.5565C70.5924 23.3901 70.0508 22.7827 70.0547 21.7459C70.0554 21.4792 70.1121 21.2156 70.221 20.9722C70.3396 20.7321 70.5289 20.5342 70.7633 20.4048C70.9978 20.2755 71.2662 20.221 71.5325 20.2487H71.6718C72.991 20.4538 73.6526 21.0766 73.6487 22.1173C73.6452 22.3908 73.5677 22.6582 73.4243 22.8911C73.1651 23.3398 72.6506 23.5603 71.9233 23.5603L71.6718 23.5565Z" fill="#7F8092"/>
<path d="M77.9918 17.4281C77.8878 17.0503 77.8408 16.6591 77.8526 16.2675C77.8381 15.7235 77.894 15.18 78.0189 14.6504H78.7153C79.6068 14.6461 80.4948 14.5384 81.3615 14.3293C82.0691 14.2108 82.7348 13.9138 83.2958 13.4665C83.4579 13.3354 83.5918 13.1729 83.6896 12.9888C83.7873 12.8046 83.8468 12.6026 83.8645 12.3949C83.8568 12.1149 83.7909 11.8395 83.6711 11.5864C83.0645 10.6629 82.3012 9.85244 81.4156 9.19165L80.4678 8.38309C80.1975 8.12896 80.0378 7.77889 80.0229 7.40818C80.0236 7.29514 80.0419 7.1829 80.0771 7.07547C80.1296 6.76236 80.2945 6.47917 80.541 6.27902C80.7874 6.07887 81.0984 5.97552 81.4156 5.98837C81.7149 6.00047 82.0046 6.09704 82.2513 6.26692C82.9982 6.83545 83.7053 7.45461 84.3674 8.12002C85.0403 8.75466 85.6129 9.48774 86.0658 10.2942C86.4091 10.8982 86.6003 11.5767 86.6229 12.2711C86.6221 12.8488 86.4686 13.416 86.178 13.9153C85.4564 15.0686 84.3917 15.967 83.1333 16.4841C81.7458 17.1136 80.2389 17.4368 78.7153 17.4319L77.9918 17.4281ZM77.9918 22.1633C77.9033 21.9229 77.8562 21.6691 77.8526 21.4128C77.8542 21.1488 77.9013 20.8871 77.9918 20.6391C78.072 20.3941 78.2234 20.1786 78.4267 20.0201C78.63 19.8616 78.876 19.7673 79.1331 19.7493L82.0888 19.8035C82.311 19.7834 82.5343 19.8279 82.7319 19.9315C82.9295 20.0351 83.0931 20.1935 83.203 20.3876C83.3263 20.6104 83.3928 20.8603 83.3964 21.1149C83.3964 21.8539 83.0095 22.2755 82.2358 22.4226L79.0673 22.8597C78.8368 22.8763 78.6071 22.8172 78.413 22.6916C78.219 22.5659 78.0711 22.3805 77.9918 22.1633Z" fill="#7F8092"/>
<path d="M92.0737 2.13517C87.5435 3.466 87.2378 12.4027 87.1991 13.4627C87.1759 14.1358 86.9477 23.0609 90.7545 24.3917C94.7663 25.7961 103.521 18.8595 102.608 11.4858C101.943 5.99999 96.0314 0.974568 92.0737 2.13517Z" fill="#F9B547"/>
<path d="M90.443 19.9666C90.0505 19.6441 89.7636 19.2116 89.6189 18.7247C89.5704 18.4962 89.5355 18.265 89.5145 18.0323C89.5119 17.8167 89.5745 17.6055 89.6939 17.426C89.8132 17.2466 89.984 17.1073 90.1838 17.0264L91.1858 16.7208C92.1216 16.4778 93.0437 16.1847 93.948 15.8426C94.7657 15.5941 95.5169 15.1644 96.1454 14.5853C96.5082 14.2513 96.7354 13.7955 96.7837 13.3047C96.7571 12.8586 96.6129 12.4275 96.3659 12.0551C96.0027 11.5072 95.5623 11.0147 95.0583 10.5928C94.4713 10.1256 93.8577 9.69292 93.2207 9.29676C93.0064 9.15898 92.8303 8.96945 92.7086 8.74564C92.5869 8.52184 92.5235 8.27098 92.5243 8.01622V7.846C92.5295 7.33879 92.7338 6.85392 93.093 6.49583C93.3166 6.25594 93.6184 6.10367 93.9441 6.06641C94.2044 6.07594 94.456 6.16207 94.6676 6.314L96.1183 7.7106C98.3776 9.69652 99.5099 11.5148 99.515 13.1654C99.512 13.5955 99.4266 14.021 99.2636 14.4189C98.7452 15.6453 97.7586 16.7401 96.3118 17.7614L95.7044 18.1831C94.8494 18.8137 94.1762 19.2896 93.681 19.6029C93.1669 19.9175 92.621 20.1769 92.0523 20.3767C91.9007 20.4302 91.7411 20.4577 91.5804 20.4579C91.1518 20.4479 90.744 20.2717 90.443 19.9666Z" fill="white"/>
</svg>
