<svg xmlns="http://www.w3.org/2000/svg" width="100%" height="100%" viewBox="0 0 196 120">
    <g id="kif_pool" data-name="kif pool" transform="translate(2.586 3.3)">
        <g id="Layer_16" transform="translate(14.187 -3.3)">
            <path id="Path_1759" data-name="Path 1759" d="M0-3.3C8.083,37.843,45.174,68.136,89.725,68.136c44.152,0,80.984-30.534,89.5-71.138Z" transform="translate(0 3.3)" fill="#d1d1d1"/>
        </g>
        <g id="Layer_18" transform="translate(-2.294 8.44)">
            <g id="Group_1245" data-name="Group 1245" transform="translate(0.012 15.276)">
                <path id="Path_1764" data-name="Path 1764" d="M48.464,245.371c-.881-1.581-3.642-3.609-5.075-4.755-1.833-1.455-3.736-2.784-5.545-4.319-3.348-2.864-5.745-4.136-10.268-3.712a90.145,90.145,0,0,0-10.4,1.936,73.782,73.782,0,0,0-12.442,4.01c-1.386.561-3.078,1.2-4.735,1.925l.423,21.231,51.765,2.028Z" transform="translate(0 -232.505)" fill="#fff"/>
            </g>
            <path id="Path_1765" data-name="Path 1765" d="M474.967,185.726l24.555-22.789a7.547,7.547,0,0,0,.376-10.758L458.14,107.534a3.407,3.407,0,0,0-4.869-.262L424.6,133.951Z" transform="translate(-374.703 -105.762)" fill="#7377d5"/>
            <path id="Path_1766" data-name="Path 1766" d="M282.35,251.5s-.263-1.706-7.911-7.515-8.489-6.437-8.489-6.437a12.109,12.109,0,0,1,.535,6.025c-.67,3.517-3.243,7.608-2.385,9.166,1.621,2.956,5.557,8.444,5.557,8.444l5.71,1.936,7.355-6.519Z" transform="translate(-232.907 -221.859)" fill="#c7dcfc"/>
            <path id="Path_1768" data-name="Path 1768" d="M471.212,179.117l-50.852-52.275,28.781-26.634a3.938,3.938,0,0,1,5.52.19l41.754,44.454a7.919,7.919,0,0,1-.393,11.24Zm-49.856-52.249,49.881,51.277,24.3-22.551a7.241,7.241,0,0,0,.359-10.277L454.14,100.861a3.221,3.221,0,0,0-4.514-.155Z" transform="translate(-370.96 -99.17)" fill="#151750"/>
            <path id="Line_843" data-name="Line 843" d="M-1.557,13.252l-.478-.505L14.578-2.2l.478.505Z" transform="translate(96.667 33.257)" fill="#151750"/>
            <path id="Line_844" data-name="Line 844" d="M-1.557,13.252l-.478-.505L14.578-2.2l.478.505Z" transform="translate(100.556 37.737)" fill="#151750"/>
            <path id="Line_845" data-name="Line 845" d="M-1.556,13.24l-.478-.505L14.579-2.205l.478.505Z" transform="translate(104.972 41.862)" fill="#151750"/>
            <path id="Line_846" data-name="Line 846" d="M-1.557,13.252l-.478-.505L14.578-2.2l.478.505Z" transform="translate(108.862 46.41)" fill="#151750"/>
            <path id="Path_1771" data-name="Path 1771" d="M223.3,168.928l40.263,42.942a6.393,6.393,0,0,0,8.894.1l48.981-44.489a5.052,5.052,0,0,0,.211-7.126c-10.691-11.515-41.59-44.844-44.34-47.525-3.3-3.22-1.492-6.233-1.492-6.233l-42,38.485" transform="translate(-197.053 -105.749)" fill="#f6f6f6"/>
            <path id="Path_1771_-_Outline" data-name="Path 1771 - Outline" d="M265.86,211.792h-.071a6.781,6.781,0,0,1-1.258-.131,6.711,6.711,0,0,1-1.218-.367,6.568,6.568,0,0,1-2.167-1.44l-.007-.007L220.877,166.9a.281.281,0,0,1,.019-.4.3.3,0,0,1,.415.018l40.26,42.939a5.981,5.981,0,0,0,1.97,1.308,6.1,6.1,0,0,0,2.256.454h.066a6.013,6.013,0,0,0,4.183-1.667l.006-.005,48.978-44.486a4.764,4.764,0,0,0,.2-6.727l-4.46-4.8c-13.086-14.1-37.445-40.345-39.87-42.71a7.152,7.152,0,0,1-1.692-2.43,5.156,5.156,0,0,1-.378-2.105,4.977,4.977,0,0,1,.111-.888L231.81,143.078a.3.3,0,0,1-.415-.013.281.281,0,0,1,.013-.4l42-38.485a.3.3,0,0,1,.385-.015.281.281,0,0,1,.07.368,3.028,3.028,0,0,0-.216.5,4.405,4.405,0,0,0-.237,1.308,4.609,4.609,0,0,0,.347,1.867,6.6,6.6,0,0,0,1.552,2.215c2.436,2.375,26.8,28.627,39.89,42.731l4.46,4.8a5.394,5.394,0,0,1,1.113,1.8,5.317,5.317,0,0,1-.119,3.988,5.405,5.405,0,0,1-1.217,1.733l-.006.005-48.978,44.486a6.541,6.541,0,0,1-2.185,1.384,6.69,6.69,0,0,1-1.222.34A6.775,6.775,0,0,1,265.86,211.792Z" transform="translate(-194.847 -103.532)" fill="#151750"/>
            <path id="Path_1772" data-name="Path 1772" d="M307.5,259.5l0-.573a5.847,5.847,0,0,0,2.178-.426l.225.529a6.451,6.451,0,0,1-1.182.35A6.518,6.518,0,0,1,307.5,259.5Zm-2.4-.451a6.324,6.324,0,0,1-2.048-1.308l.41-.41a5.741,5.741,0,0,0,1.859,1.187Zm6.836-1.337-.4-.419,1.719-1.562.4.419Zm-10.487-1.669-1.585-1.691.434-.387,1.585,1.691Zm13.925-1.455-.4-.419,1.719-1.562.4.419Zm-17.1-1.928-1.586-1.691.434-.386,1.585,1.691Zm20.535-1.2-.4-.419,1.719-1.562.4.419Zm-23.706-2.186-1.585-1.691.433-.387,1.586,1.691Zm27.144-.938-.4-.419,1.719-1.562.4.419ZM291.936,245.9l-1.585-1.691.434-.387,1.585,1.691Zm33.753-.679-.4-.419,1.719-1.562.4.419Zm-36.924-2.7-1.585-1.691.434-.387,1.585,1.691Zm40.362-.42-.4-.419,1.719-1.562.4.419Zm-43.533-2.962-1.585-1.691.434-.386,1.586,1.691Zm46.972-.162-.4-.419,1.719-1.562.4.419ZM336,235.848l-.4-.419,1.719-1.562.4.419Zm-53.581-.1-1.585-1.691.434-.387,1.585,1.691Zm57.02-3.027-.4-.419,1.719-1.562.4.419Zm-60.19-.355-1.586-1.691.434-.387,1.585,1.691Zm63.629-2.769-.4-.419,1.719-1.562.4.419Zm-66.8-.614L274.5,227.3l.434-.387,1.585,1.691Zm70.238-2.51-.4-.419,1.719-1.562.4.419Zm-73.409-.872-1.585-1.691.434-.387,1.585,1.691Zm76.847-2.252-.4-.419,1.719-1.562.4.419Zm-80.018-1.131-1.585-1.691.434-.386,1.585,1.691Zm83.457-1.993-.4-.419,1.719-1.562.4.419Zm3.438-3.124-.4-.419,1.719-1.562.4.419Zm3.315-3.346-.512-.281a4.58,4.58,0,0,0,.606-2.057l.587.028a5.14,5.14,0,0,1-.681,2.309Zm-.3-4.442a4.647,4.647,0,0,0-.829-1.252l-.482-.519.435-.385.482.519a5.215,5.215,0,0,1,.932,1.406Zm-2.888-3.469-1.578-1.7.435-.385,1.578,1.7Zm-3.154-3.4-1.577-1.7.435-.385,1.577,1.7Zm-3.154-3.4-1.577-1.7.435-.385,1.577,1.7Zm-3.155-3.4-1.577-1.7.435-.385,1.577,1.7Zm-3.155-3.4-1.578-1.7.435-.385,1.578,1.7Zm-3.156-3.4-1.578-1.7.435-.385,1.578,1.7Zm-3.157-3.4-1.579-1.7.435-.385,1.579,1.7Zm-3.158-3.394-1.58-1.7.435-.385,1.58,1.7Zm-3.16-3.393-1.58-1.7.435-.385,1.58,1.7Zm-3.161-3.391-1.582-1.695.434-.386,1.582,1.7Zm-3.164-3.389-1.583-1.692.434-.386,1.583,1.693Zm-3.169-3.385-1.587-1.69.433-.387,1.588,1.69Zm-3.176-3.374c-.636-.672-1.173-1.237-1.6-1.678l.429-.391c.424.442.962,1.008,1.6,1.681Zm-3.216-3.362a6.655,6.655,0,0,1-.666-.934l.51-.284a6.02,6.02,0,0,0,.609.853Z" transform="translate(-236.638 -153.526)" fill="#151750"/>
            <path id="Line_847" data-name="Line 847" d="M2.1,2.9,1.33,2.079l.433-.387.774.825ZM-.257.389-1.844-1.3l.433-.387L.176,0Z" transform="translate(29.413 64.101)" fill="#23297a"/>
            <path id="Path_1773" data-name="Path 1773" d="M227.5,635.776s3.2,3.139,10.268,3.712a53.474,53.474,0,0,0,7.919,3.964c4.23,1.65,18.692,8.822,22.581,9.406s7.073.493,9.117-1.489,2.173-2.876,2.173-2.876-3.172,7.573-22.287-2.578-22.487-12.89-22.487-12.89l-7.6-1.627-1.88,1.982Z" transform="translate(-198.818 -570.42)" fill="#c7dcfc"/>
            <path id="Path_1774" data-name="Path 1774" d="M-.088,522.488s5.416,2.612,10.621.5,8.53-6.061,11.878-3.586,4.359,8.456,10.832,10.472,8.377.905,11.549,3.632,22.828,17.3,30.829,17.564l2.185-.183a2.056,2.056,0,0,1-1.563,1.272c-1.292.332-3.936-.1-7.237-1.283s-13.123-4.7-14.3-5.339-9.975-4.984-13.253-7.894c0,0-10.139-.676-14.921-3.792S19.744,529,17.37,529.007,2.132,531.7,2.132,531.7L-.1,531.31v-8.822Z" transform="translate(0.1 -470.56)" fill="#c7dcfc"/>
            <path id="Line_848" data-name="Line 848" d="M-1.3,46.671l-.4-.421,1.6-1.438.4.421Zm3.322-2.993-.4-.421L3.352,41.7l.4.421Zm3.452-3.11-.4-.421L6.8,38.592l.4.421Zm3.452-3.11-.4-.421,1.726-1.555.4.421Zm3.452-3.11-.4-.421,1.726-1.555.4.421Zm3.452-3.11-.4-.421,1.726-1.555.4.421Zm3.452-3.11-.4-.421,1.726-1.555.4.421Zm3.452-3.11-.4-.421,1.726-1.555.4.421Zm3.452-3.11-.4-.421,1.726-1.555.4.421Zm3.452-3.11-.4-.421,1.726-1.555.4.421Zm3.452-3.11-.4-.421,1.726-1.555.4.421Zm3.452-3.11-.4-.421L37.871,10.6l.4.421ZM40,9.469l-.4-.421,1.726-1.555.4.421Zm3.452-3.11-.4-.421,1.726-1.555.4.421ZM46.9,3.249l-.4-.421,1.726-1.555.4.421ZM50.351.139l-.4-.421,1.726-1.555.4.421Z" transform="translate(67.913 55.651)" fill="#151750"/>
            <g id="Group_1247" data-name="Group 1247" transform="translate(61.14 47.857)">
                <g id="Group_1246" data-name="Group 1246" transform="translate(0 0)">
                    <path id="Line_849" data-name="Line 849" d="M-1.3-.631l-.4-.419.858-.779.4.419Z" transform="translate(53.939 1.829)" fill="#151750"/>
                    <path id="Line_850" data-name="Line 850" d="M6.264,41.791l-.4-.42,1.772-1.6.4.42Zm3.543-3.2-.4-.42,1.772-1.6.4.42Zm3.543-3.2-.4-.42,1.772-1.6.4.42Zm3.543-3.2-.4-.42,1.772-1.6.4.42Zm3.543-3.2-.4-.42,1.772-1.6.4.42Zm3.543-3.2-.4-.42,1.772-1.6.4.42Zm3.543-3.2-.4-.42,1.772-1.6.4.42Zm3.543-3.2-.4-.42,1.772-1.6.4.42Zm3.543-3.2-.4-.42,1.772-1.6.4.42Zm3.543-3.2-.4-.42,1.772-1.6.4.42Zm3.543-3.2-.4-.42,1.772-1.6.4.42Zm3.543-3.2-.4-.42,1.772-1.6.4.42Zm3.543-3.2-.4-.42,1.772-1.6.4.42Zm3.543-3.2-.4-.42,1.772-1.6.4.42Z" transform="translate(-3.237 4.205)" fill="#151750"/>
                    <path id="Line_851" data-name="Line 851" d="M-1.3-.631l-.4-.419.858-.779.4.419Z" transform="translate(1.704 49.011)" fill="#151750"/>
                </g>
            </g>
            <path id="Path_1777" data-name="Path 1777" d="M0,618.035a19.775,19.775,0,0,0,10.621.253c5.769-1.49,14.275-4.583,15.1-4.744,0,0-4.887-3.689-6.955-4.044s-8.859-.6-12.125.378A14.93,14.93,0,0,1,0,610.107Z" transform="translate(0.012 -550.755)" fill="#c7dcfc"/>
            <path id="Path_2398" data-name="Path 2398" d="M643.262,619.135l7.62-7.06a2.018,2.018,0,0,1,2.843.1l14.592,15.561c.768.821-.11,1.893-.928,2.664l-7.052,7.6a2.01,2.01,0,0,1-2.872-.12l-14.333-15.892A2.048,2.048,0,0,1,643.262,619.135Z" transform="translate(-563.336 -548.254)" fill="#151750"/>
            <path id="Path_2399" data-name="Path 2399" d="M644.262,630.135l7.62-7.06a2.018,2.018,0,0,1,2.843.1l14.592,15.561a2.034,2.034,0,0,1-.09,2.874L661.338,649a2.01,2.01,0,0,1-2.872-.12l-14.333-15.892A2.047,2.047,0,0,1,644.262,630.135Z" transform="translate(-564.234 -558.152)" fill="#7377d5"/>
            <path id="Ellipse_205" data-name="Ellipse 205" d="M.522-2.5A2.993,2.993,0,0,1,1.7-2.261a3.011,3.011,0,0,1,.961.65A3.031,3.031,0,0,1,3.544.534,3.031,3.031,0,0,1,2.659,2.68a3.011,3.011,0,0,1-.961.65,2.993,2.993,0,0,1-1.176.239A2.993,2.993,0,0,1-.654,3.33a3.011,3.011,0,0,1-.961-.65A3.031,3.031,0,0,1-2.5.534a3.031,3.031,0,0,1,.885-2.145,3.011,3.011,0,0,1,.961-.65A2.993,2.993,0,0,1,.522-2.5Zm0,5.568A2.533,2.533,0,0,0,.522-2a2.533,2.533,0,0,0,0,5.067Z" transform="translate(86.289 71.207)" fill="#151750"/>
            <g id="Group_2570" data-name="Group 2570" transform="translate(21.585 22.591)">
                <path id="Path_1776" data-name="Path 1776" d="M194.616,298.612a8.79,8.79,0,0,0-1.351,5.11c.141,2.589,1.433,3.8,3.019,5.786,1.4,1.753,2.491,3.861,4.077,5.5,1.61,1.661,3.783,2.658,5.592,4.056,3.912,3.013,7.437,6.485,11.843,8.879a31.4,31.4,0,0,0,5.745,2.131c2.338.733,3.278,2.36,5.1,3.918,1.95,1.673,4.265,3.128,6.332,4.629,1,.722,2.138,1.73,3.16,2.349.916.561,2.538.538,2.679,1.856,0,0,3.666,2.727,3.56,4.457s-1.363,6.359-5.087,6.977-22.264-11.423-22.264-11.423L190.81,323.863l-.764-11.709s-9.317-.905-5.51-10.564S194.616,298.612,194.616,298.612Z" transform="translate(-183.622 -296.361)" fill="#fff"/>
            </g>
        </g>
        <g id="Layer_17" transform="translate(-2.586 23.443)">
            <g id="Group_1277" data-name="Group 1277">
                <g id="Group_1250" data-name="Group 1250">
                    <g id="Group_1249" data-name="Group 1249">
                        <path id="Path_1778" data-name="Path 1778" d="M-2.13,238.587c1.739-.768,3.525-1.455,5.3-2.154,1.833-.722,3.666-1.421,5.534-2.039a57.171,57.171,0,0,1,5.639-1.581c1.962-.435,3.936-.871,5.91-1.272a40.518,40.518,0,0,1,5.874-.848,11.382,11.382,0,0,1,4.218.5,12.465,12.465,0,0,1,3.525,1.971c.67.5,1.3,1.065,1.962,1.6.752.619,1.527,1.214,2.3,1.81q2.027,1.53,4.018,3.1a21.288,21.288,0,0,1,3.29,3,5.016,5.016,0,0,1,.505.722.291.291,0,0,0,.505-.286,12.474,12.474,0,0,0-2.984-3.116c-1.234-1.02-2.514-2.005-3.795-2.979-.8-.607-1.6-1.2-2.4-1.822-.74-.584-1.445-1.192-2.174-1.787a16.388,16.388,0,0,0-3.63-2.372,10.887,10.887,0,0,0-4.042-.928,26.858,26.858,0,0,0-5.581.539c-2.033.355-4.053.825-6.062,1.26-1.974.424-3.924.882-5.851,1.478-3.748,1.146-7.39,2.624-11,4.113-.458.195-.916.378-1.375.584-.341.149-.047.642.305.493Z" transform="translate(2.586 -230.11)" fill="#151750"/>
                    </g>
                </g>
                <g id="Group_1252" data-name="Group 1252" transform="translate(31.2 9.558)">
                    <g id="Group_1251" data-name="Group 1251">
                        <path id="Path_1779" data-name="Path 1779" d="M264.391,313.676a10.755,10.755,0,0,0-1.269,3.242,8.128,8.128,0,0,0,.106,3.529c.576,2.131,2.338,3.666,3.583,5.431.74,1.054,1.422,2.154,2.209,3.174a13.785,13.785,0,0,0,2.667,2.658c1.01.745,2.091,1.375,3.125,2.085,1.081.722,2.079,1.558,3.078,2.372,2.021,1.661,4.006,3.38,6.145,4.915a34.709,34.709,0,0,0,3.325,2.143,20.5,20.5,0,0,0,3.583,1.535c.623.206,1.257.4,1.892.6a9.986,9.986,0,0,1,1.692.63,10.779,10.779,0,0,1,2.514,2.062,27.527,27.527,0,0,0,2.831,2.486c1.093.825,2.221,1.6,3.36,2.395,1.093.756,2.15,1.547,3.207,2.372a14.2,14.2,0,0,0,2.15,1.432,11.557,11.557,0,0,1,3.877,3.162,13.7,13.7,0,0,1,1.01,1.558.291.291,0,0,0,.505-.286,11.809,11.809,0,0,0-4.136-4.388c-.47-.286-.975-.527-1.445-.8a30.5,30.5,0,0,1-2.89-2.131c-2.162-1.638-4.5-3.036-6.556-4.789-.858-.733-1.6-1.57-2.42-2.326a7.592,7.592,0,0,0-2.867-1.719c-1.234-.39-2.467-.745-3.677-1.2a19.543,19.543,0,0,1-3.525-1.8,57.407,57.407,0,0,1-6.239-4.686,60.7,60.7,0,0,0-6.062-4.663,23.82,23.82,0,0,1-3-2.131,16.253,16.253,0,0,1-2.467-2.956c-.717-1.043-1.4-2.108-2.185-3.093a27.388,27.388,0,0,1-1.962-2.544,7.133,7.133,0,0,1-.4-6.393,14.009,14.009,0,0,1,.764-1.581c.153-.321-.352-.619-.529-.287Z" transform="translate(-262.979 -313.531)" fill="#151750"/>
                    </g>
                </g>
                <g id="Group_1254" data-name="Group 1254" transform="translate(69.109 52.11)">
                    <g id="Group_1253" data-name="Group 1253">
                        <path id="Path_1780" data-name="Path 1780" d="M590.865,685.479c1.4.893,2.925,1.524,4.335,2.394a17.14,17.14,0,0,1,1.9,1.4,6,6,0,0,1,1.386,1.432,2.464,2.464,0,0,1,.329,1.7,7.309,7.309,0,0,1-.634,1.971,6.87,6.87,0,0,1-2.526,2.99,4.485,4.485,0,0,1-1.739.642,4.286,4.286,0,0,1-1.9-.206,8.51,8.51,0,0,1-1.715-.859,15.939,15.939,0,0,1-1.574-1.089,6.785,6.785,0,0,1-2.338-2.91,2.714,2.714,0,0,1-.164-.8,2.547,2.547,0,0,1,0-.424c0-.057.012-.1.012-.16a.067.067,0,0,1,.012-.046h0a.068.068,0,0,1,.012-.046,8.321,8.321,0,0,1,.341-1.4,9.849,9.849,0,0,1,1.457-2.91,5.326,5.326,0,0,1,1.034-1.066,2.7,2.7,0,0,1,1.245-.55s.094-.011.035-.011c.023,0,.059-.012.082-.012.059,0,.117-.011.176-.011h.176a.267.267,0,0,1,.094.011s.094.012.047,0a.308.308,0,0,0,.364-.195.293.293,0,0,0-.2-.355,3.053,3.053,0,0,0-1.6.206,4.3,4.3,0,0,0-1.3.917,9.051,9.051,0,0,0-1.868,2.99,10.47,10.47,0,0,0-.505,1.558,4.973,4.973,0,0,0-.188,1.5,5.422,5.422,0,0,0,1.88,3.414,14.468,14.468,0,0,0,3.3,2.337,5.975,5.975,0,0,0,2.162.7,4.646,4.646,0,0,0,2.021-.252,6.656,6.656,0,0,0,3.219-2.773,9.043,9.043,0,0,0,.9-1.925,4.727,4.727,0,0,0,.317-2.017c-.188-1.512-1.539-2.463-2.667-3.357a31.692,31.692,0,0,0-4.488-2.624c-.376-.206-.74-.424-1.1-.653a.3.3,0,0,0-.329.493Z" transform="translate(-585.641 -684.932)" fill="#151750"/>
                    </g>
                </g>
                <g id="Group_1256" data-name="Group 1256" transform="translate(66.4 50.147)">
                    <g id="Group_1255" data-name="Group 1255">
                        <path id="Path_1781" data-name="Path 1781" d="M568.29,667.8a4.669,4.669,0,0,0-2.808,1.409,12.171,12.171,0,0,0-2.091,2.715c-.282.481-.54.963-.775,1.467a.279.279,0,0,0,.106.39.3.3,0,0,0,.4-.1,16.089,16.089,0,0,1,1.515-2.6,7.828,7.828,0,0,1,2.209-2.2,3.347,3.347,0,0,1,1.433-.493.3.3,0,0,0,.294-.286.274.274,0,0,0-.282-.3Z" transform="translate(-562.577 -667.795)" fill="#151750"/>
                    </g>
                </g>
                <g id="Group_1258" data-name="Group 1258" transform="translate(40.889 51.484)">
                    <g id="Group_1257" data-name="Group 1257">
                        <path id="Path_1782" data-name="Path 1782" d="M386.367,689.235a7.727,7.727,0,0,1-2.291,3.139,8.946,8.946,0,0,1-3.583,1.993,6.732,6.732,0,0,1-3.995-.4c-.682-.241-1.339-.516-2.009-.768-.74-.275-1.492-.538-2.232-.8-3.043-1.089-6.1-2.143-9.105-3.311-1.5-.584-2.984-1.192-4.453-1.833s-2.9-1.318-4.276-2.085c-2.655-1.489-5.087-3.311-7.6-5.019-.317-.217-.634-.424-.952-.63s-.611.286-.294.493c2.6,1.719,5.064,3.609,7.754,5.19a61.183,61.183,0,0,0,8.847,4.125c3.055,1.2,6.156,2.292,9.246,3.391,1.492.527,2.984,1.089,4.465,1.65a7.169,7.169,0,0,0,7.93-1.008,9.322,9.322,0,0,0,2.737-3.059,6.071,6.071,0,0,0,.388-.894c.117-.378-.458-.527-.576-.172Z" transform="translate(-345.439 -679.47)" fill="#151750"/>
                    </g>
                </g>
                <g id="Group_1260" data-name="Group 1260" transform="translate(16.819 38.61)">
                    <g id="Group_1259" data-name="Group 1259">
                        <path id="Path_1783" data-name="Path 1783" d="M164.9,579.952a30.74,30.74,0,0,1-11.338-2.165,30.125,30.125,0,0,1-5.111-2.624,29.821,29.821,0,0,1-4.359-3.437,12.532,12.532,0,0,1-1.527-1.707,10.957,10.957,0,0,1-1.163-2.074c-.094-.206-.176-.424-.258-.642a.3.3,0,0,0-.364-.195.283.283,0,0,0-.2.355,13.049,13.049,0,0,0,1.128,2.337,12.541,12.541,0,0,0,1.469,1.856c.611.63,1.281,1.215,1.95,1.787.752.63,1.539,1.226,2.35,1.787a29.861,29.861,0,0,0,5.122,2.807,31.587,31.587,0,0,0,5.639,1.8,31.982,31.982,0,0,0,5.9.7c.247.012.493.012.74.012.4-.023.4-.6.023-.6Z" transform="translate(-140.568 -567.097)" fill="#151750"/>
                    </g>
                </g>
                <g id="Group_1262" data-name="Group 1262" transform="translate(22.355 39.673)">
                    <g id="Group_1261" data-name="Group 1261">
                        <path id="Path_1784" data-name="Path 1784" d="M192.576,584.868c-1.762-1.81-2.526-4.228-3.466-6.485-.27-.63-.552-1.26-.881-1.867-.176-.321-.681-.034-.505.286,1.2,2.177,1.774,4.64,3.113,6.76a10.567,10.567,0,0,0,1.339,1.707c.247.275.67-.138.4-.4Z" transform="translate(-187.687 -576.375)" fill="#151750"/>
                    </g>
                </g>
                <g id="Group_1264" data-name="Group 1264" transform="translate(0.002 42.905)">
                    <g id="Group_1263" data-name="Group 1263">
                        <path id="Path_1785" data-name="Path 1785" d="M19.245,606.216a5.421,5.421,0,0,0-2.949-1.329,20.393,20.393,0,0,0-4.006-.3c-1.175.011-2.338.08-3.513.195-1.668.16-3.313.5-4.97.768a20.183,20.183,0,0,1-5.381.286c-.211-.023-.411-.057-.623-.092a.32.32,0,0,0-.364.195.3.3,0,0,0,.2.355,17.125,17.125,0,0,0,5.4-.069c1.727-.241,3.442-.607,5.169-.814,1.128-.137,2.268-.206,3.407-.241a23.728,23.728,0,0,1,3.936.172,10.484,10.484,0,0,1,1.774.4,5.221,5.221,0,0,1,.693.287c.106.057.223.115.329.183a1,1,0,0,0,.141.092c.012.011.059.046.023.023.023.023.047.035.07.057.082.069.164.149.247.229.258.275.67-.126.411-.4Z" transform="translate(2.569 -604.588)" fill="#151750"/>
                    </g>
                </g>
                <g id="Group_1266" data-name="Group 1266" transform="translate(34.433 12.012)">
                    <g id="Group_1265" data-name="Group 1265">
                        <path id="Path_1786" data-name="Path 1786" d="M294.251,334.981A2.811,2.811,0,0,0,292,335.6a4.16,4.16,0,0,0-1.151,2.028,10.479,10.479,0,0,0-.352,2.7,15.247,15.247,0,0,0,.223,2.727,6.443,6.443,0,0,0,.717,2.211.291.291,0,0,0,.505-.286,2.01,2.01,0,0,1-.176-.355c.035.08,0-.011-.012-.034a.4.4,0,0,0-.047-.1c-.023-.08-.059-.149-.082-.229a8.342,8.342,0,0,1-.27-1.031c-.035-.195-.071-.39-.106-.573-.012-.057-.012-.1-.023-.16,0-.023-.012-.057-.012-.08-.012-.092.012.057,0-.034s-.023-.218-.035-.321a14.79,14.79,0,0,1-.047-2.635,7.375,7.375,0,0,1,.188-1.226,5.631,5.631,0,0,1,.164-.6,2.553,2.553,0,0,1,.094-.275.476.476,0,0,1,.047-.115.159.159,0,0,0,.024-.069h0c.012-.012.012-.034.023-.046a4.651,4.651,0,0,1,.247-.481,2.568,2.568,0,0,1,.153-.229c.023-.034.047-.057.07-.092-.047.057,0,0,.012-.011s.035-.046.059-.069a1.587,1.587,0,0,1,.2-.195c.035-.023.059-.057.094-.08.012-.011.035-.023.047-.034.035-.034-.047.023.024-.023a1.62,1.62,0,0,1,.235-.149c.047-.023.082-.046.129-.069.012-.011.023-.011.035-.023.047-.023-.047.011.023-.011a2.4,2.4,0,0,1,.27-.08c.047-.011.106-.023.153-.034.024,0,.047-.011.07-.011-.047.011-.024,0,.012,0a2.725,2.725,0,0,1,.305-.011.913.913,0,0,1,.176.011.235.235,0,0,1,.082.011c.012,0,.117.012.047,0a.308.308,0,0,0,.364-.195.325.325,0,0,0-.223-.344Z" transform="translate(-290.491 -334.953)" fill="#151750"/>
                    </g>
                </g>
                <g id="Group_1268" data-name="Group 1268" transform="translate(0.425 47.508)">
                    <g id="Group_1267" data-name="Group 1267">
                        <path id="Path_1787" data-name="Path 1787" d="M26.534,644.767a30.286,30.286,0,0,0-4.23,1.26c-1.516.55-3.019,1.157-4.535,1.719a35.848,35.848,0,0,1-4.335,1.375,33.627,33.627,0,0,1-5.557.791,27.638,27.638,0,0,1-5.757-.24c-.235-.035-.482-.08-.717-.115a.32.32,0,0,0-.364.195.3.3,0,0,0,.2.355,27.718,27.718,0,0,0,5.839.412,34.274,34.274,0,0,0,5.816-.7,30.434,30.434,0,0,0,4.382-1.283c1.539-.55,3.055-1.157,4.582-1.73a35.046,35.046,0,0,1,4.324-1.375c.164-.034.341-.08.505-.1a.283.283,0,0,0,.2-.355.29.29,0,0,0-.352-.206Z" transform="translate(-1.031 -644.763)" fill="#151750"/>
                    </g>
                </g>
                <g id="Group_1270" data-name="Group 1270" transform="translate(55.921 42.232)">
                    <g id="Group_1269" data-name="Group 1269">
                        <path id="Path_1788" data-name="Path 1788" d="M478.464,599a5.213,5.213,0,0,1-1.151,2.956,16.17,16.17,0,0,1-2.455,2.589c-.458.4-.917.791-1.386,1.18a.282.282,0,0,0,0,.4.3.3,0,0,0,.411,0,32.717,32.717,0,0,0,2.585-2.326,9.933,9.933,0,0,0,2.15-2.956,4.614,4.614,0,0,0,.423-1.856c.012-.366-.576-.366-.576.011Z" transform="translate(-473.387 -598.713)" fill="#151750"/>
                    </g>
                </g>
                <g id="Group_1272" data-name="Group 1272" transform="translate(60.328 44.054)">
                    <g id="Group_1271" data-name="Group 1271">
                        <path id="Path_1789" data-name="Path 1789" d="M513.426,614.887a3.761,3.761,0,0,1-.529,2.12c-.376.664-.869,1.249-1.292,1.879a8.657,8.657,0,0,0-.67,1.146.289.289,0,0,0,.106.39.3.3,0,0,0,.4-.1c.67-1.421,1.95-2.509,2.408-4.022a4.011,4.011,0,0,0,.164-1.4c-.024-.378-.611-.378-.587-.012Z" transform="translate(-510.9 -614.613)" fill="#151750"/>
                    </g>
                </g>
                <g id="Group_1274" data-name="Group 1274" transform="translate(19.652 20.124)">
                    <g id="Group_1273" data-name="Group 1273">
                        <path id="Path_1790" data-name="Path 1790" d="M165.493,412.757a6.011,6.011,0,0,1,.329-4.056,5.075,5.075,0,0,1,.928-1.318c.094-.092.188-.183.282-.264a1.175,1.175,0,0,0,.129-.115c.023-.011.035-.034.059-.046l.035-.034h0a3.989,3.989,0,0,1,.552-.344c.047-.023.106-.057.153-.08a.565.565,0,0,1,.082-.034c.035-.012-.024.012-.024.012s.024-.012.035-.012a2.669,2.669,0,0,1,.282-.092l.141-.034c.024,0,.035-.012.059-.012-.094.012-.024,0,0,0a1.775,1.775,0,0,1,.247,0,.286.286,0,1,0,0-.573,2.316,2.316,0,0,0-1.1.241,4.322,4.322,0,0,0-1.21.825,5.707,5.707,0,0,0-1.715,3.288,7.183,7.183,0,0,0,.153,2.784.3.3,0,0,0,.587-.138Z" transform="translate(-164.68 -405.751)" fill="#151750"/>
                    </g>
                </g>
                <g id="Group_1276" data-name="Group 1276" transform="translate(71.65 58.717)">
                    <g id="Group_1275" data-name="Group 1275">
                        <path id="Path_1791" data-name="Path 1791" d="M607.284,742.964a4.851,4.851,0,0,0,1.293,1.764,13.349,13.349,0,0,0,1.891,1.409c.329.218.67.413,1.01.619a.287.287,0,0,0,.294-.493A12.408,12.408,0,0,1,608.4,743.7a3.367,3.367,0,0,1-.552-.893.3.3,0,0,0-.364-.2.294.294,0,0,0-.2.355Z" transform="translate(-607.268 -742.597)" fill="#151750"/>
                    </g>
                </g>
            </g>
        </g>
    </g>
</svg>
