<svg width="23" height="34" viewBox="0 0 23 34" fill="none" xmlns="http://www.w3.org/2000/svg">
<path d="M0.136963 24.0328C1.23229 24.2969 2.40776 24.5505 3.69899 24.7724C4.76765 24.9829 5.84833 25.096 6.93154 25.1105C10.1819 25.1105 12.4438 24.6984 13.6994 23.8637C14.2348 23.6005 14.6968 23.1635 15.0323 22.6028C15.3678 22.0421 15.5633 21.3805 15.5962 20.694C15.5962 19.0562 14.5899 17.0382 12.5774 14.6186C10.0884 11.7561 7.33742 9.23276 4.37579 7.09564L8.08029 0.470825C11.8886 3.06332 15.3593 6.29858 18.3835 10.0752C20.9363 13.3929 22.2156 16.9149 22.2216 20.6411C22.2216 24.8675 20.9125 28.0126 18.2944 30.0765C15.6763 32.1404 11.9896 33.1582 7.23431 33.13C5.99283 33.1326 4.75249 33.0409 3.5209 32.8553C2.34543 32.6651 1.21448 32.4432 0.136963 32.1685V24.0328Z" fill="white"/>
</svg>
