<svg width="220" height="59" viewBox="0 0 220 59" fill="none" xmlns="http://www.w3.org/2000/svg">
<g clip-path="url(#clip0_225_2)">
<path d="M8.56669 29.9015C7.98617 31.6976 7.50428 33.5364 7.12406 35.4064C6.75932 37.1025 6.56503 38.8439 6.54523 40.5942C6.54523 44.2993 7.29623 46.969 8.79822 48.6032C10.3002 50.2374 12.7313 51.0545 16.0915 51.0545C19.1192 51.0545 21.3633 50.1458 22.8415 48.339C24.3198 46.5323 25.0411 43.5844 25.0411 39.5376L25.1212 -0.0211182H31.5863V38.3331C31.5863 45.053 30.2773 50.174 27.6592 53.6959C25.0411 57.2179 21.1822 58.9789 16.0826 58.9789C10.9711 58.9789 7.01423 57.4151 4.2121 54.2876C1.40997 51.1601 0.00593672 46.5956 0 40.5942C0.0217286 38.3525 0.266836 36.1217 0.730216 33.9483C1.20045 31.5961 1.82879 29.2924 2.60919 27.0593L8.56669 29.9015Z" fill="white"/>
<path d="M35.9231 33.6101C36.965 33.9271 38.0603 34.2018 39.218 34.4448C40.2717 34.6862 41.3417 34.8135 42.4149 34.8252C43.6932 34.8323 44.9702 34.7264 46.2352 34.5082C47.2588 34.3785 48.2448 33.9777 49.1204 33.3354C49.4715 33.068 49.7575 32.6961 49.9496 32.2567C50.1418 31.8174 50.2336 31.3259 50.2157 30.8313C50.1939 30.1719 50.0888 29.5202 49.9041 28.8977C49.6993 28.0947 49.5122 27.4819 49.3609 27.0487L44.7926 13.3976L50.7411 10.2278L56.5562 27.8728C57.1116 29.6387 57.8032 31.34 58.6221 32.955C58.8852 33.544 59.2789 34.0365 59.7607 34.3791C60.2426 34.7218 60.7942 34.9016 61.356 34.8992H62.4513V42.9398H61.356C58.0196 42.9398 55.4905 41.5064 53.7689 38.6395C52.4858 40.083 50.946 41.1663 49.2629 41.8093C47.1722 42.5681 44.9925 42.9248 42.8067 42.8659C41.5558 42.8797 40.3057 42.7843 39.0666 42.5806C37.998 42.3798 36.9472 42.1368 35.9231 41.8515V33.6101Z" fill="white"/>
<path d="M65.2742 27.3023C65.2618 25.0003 65.789 22.7395 66.797 20.7726C67.7917 18.7951 69.1798 17.1371 70.8399 15.944C72.4807 14.7351 74.3762 14.1014 76.3076 14.1161C78.0785 14.092 79.8323 14.5284 81.4459 15.3945C83.1026 16.3101 84.6905 17.3918 86.1923 18.6277L83.6365 25.3476C82.4492 24.5446 81.2618 23.8015 80.0745 23.1182C78.9944 22.4636 77.8049 22.1026 76.5926 22.0616C75.3631 22.0758 74.187 22.6597 73.3155 23.6888C72.8568 24.1719 72.4906 24.7662 72.2418 25.4314C71.9929 26.0967 71.8671 26.8175 71.8729 27.5453C71.8677 28.5324 72.0697 29.5056 72.4606 30.377C72.8178 31.193 73.2639 31.9496 73.7875 32.6275C74.1585 33.1163 74.584 33.5428 75.052 33.8954C75.1947 33.888 75.3357 33.856 75.4705 33.8003L87.3944 30.0283V38.1112C83.4468 39.5854 79.4258 40.7675 75.3548 41.6508C71.6668 42.4447 67.9271 42.8513 64.1789 42.8659H61.4094V34.8569H67.2512C66.6931 33.7181 66.2279 32.5188 65.862 31.2751C65.4752 30.0007 65.2764 28.6568 65.2742 27.3023Z" fill="white"/>
<path d="M108.918 29.6479C108.421 31.2664 108.013 32.9217 107.698 34.6033C107.378 36.3101 107.217 38.0533 107.217 39.8018C107.217 43.9506 108.075 46.8563 109.791 48.5186C111.506 50.181 114.205 51.0122 117.885 51.0122C119.873 51.0405 121.854 50.72 123.763 50.0613C125.263 49.5815 126.68 48.791 127.948 47.7262C128.367 47.4398 128.724 47.0431 128.993 46.5667C129.261 46.0904 129.434 45.5472 129.498 44.9791C129.473 44.713 129.402 44.4558 129.29 44.2232C129.179 43.9906 129.028 43.7876 128.848 43.6266C128.085 43.0337 127.171 42.7758 126.265 42.8976H122.872C122.565 42.9348 122.255 42.8968 121.961 42.7859C121.667 42.6751 121.395 42.4937 121.162 42.2531C120.806 41.7802 120.56 41.2045 120.45 40.5836L119.764 37.1709C119.577 36.2199 119.568 35.5965 119.764 35.3007C119.96 35.0049 120.379 34.8569 121.056 34.8569H137.156V42.8976H135.322C135.461 43.3219 135.554 43.7658 135.598 44.2183C135.598 44.5776 135.642 44.9051 135.642 45.1904C135.67 47.8687 134.839 50.4594 133.318 52.4386C131.587 54.6442 129.415 56.2975 127.004 57.2461C124.093 58.441 121.028 59.0238 117.948 58.9683C112.605 58.9683 108.387 57.3482 105.294 54.108C102.201 50.8678 100.672 46.0885 100.708 39.7701C100.729 37.5468 100.953 35.3327 101.375 33.1664C101.755 30.9925 102.316 28.8689 103.05 26.8268L108.918 29.6479Z" fill="white"/>
<path d="M170.096 30.8947C169.205 31.0109 168.404 31.1588 167.683 31.3279C166.762 31.5632 165.866 31.9175 165.011 32.3845C165.145 32.8148 165.362 33.2017 165.645 33.5138C165.928 33.8259 166.269 34.0544 166.641 34.1807C168.034 34.7176 169.497 34.9503 170.96 34.8675H172.42V42.9081H170.906C168.37 43.0207 165.844 42.4575 163.515 41.2598C162.57 40.7287 161.738 39.9526 161.08 38.9889C160.422 38.0251 159.955 36.8983 159.713 35.6916C156.648 37.6197 153.484 39.3137 150.238 40.7633C147.042 42.1801 143.657 42.8961 140.246 42.8764H136.07V34.8569H140.362C142.234 34.8698 144.101 34.6288 145.928 34.1384C147.732 33.6232 149.493 32.9159 151.19 32.0252C152.971 31.1166 154.919 30.0212 157.032 28.7393L158.884 27.5981C158.591 27.4713 158.252 27.3129 157.878 27.1227C157.504 26.9325 156.925 26.6366 156.142 26.2668C154.361 25.4216 152.921 24.7665 151.823 24.3016C151.087 23.9759 150.317 23.7697 149.534 23.6888C148.697 23.7097 147.883 24.0099 147.183 24.5552C146.389 25.1313 145.692 25.8763 145.126 26.7529L143.87 28.6442L138.189 25.2631L139.124 23.2872C140.223 21.0601 141.749 19.1707 143.577 17.7718C145.36 16.3873 147.447 15.6527 149.579 15.6587C150.93 15.6797 152.268 15.98 153.532 16.5462C155.031 17.1877 156.5 17.9249 157.932 18.7545C159.926 19.9167 161.6 20.8043 162.936 21.4382C164.125 22.0088 165.353 22.4612 166.605 22.7907C167.793 23.0871 168.999 23.2708 170.212 23.3401L170.096 30.8947ZM148.644 52.2801L153.185 46.9337L157.727 52.2906L153.185 57.6793L148.644 52.2801Z" fill="white"/>
<path d="M169.517 52.2801L173.774 47.2613L178.021 52.2801L173.774 57.3517L169.517 52.2801ZM186.401 17.3492C186.876 19.2247 187.237 21.1387 187.479 23.076C187.741 24.9692 187.878 26.884 187.888 28.8027C187.888 33.6982 186.817 37.273 184.674 39.5271C182.53 41.7811 179.384 42.9117 175.234 42.9187H171.343V34.8569H175.234C176.507 34.8957 177.78 34.7646 179.028 34.466C179.413 34.3727 179.774 34.1742 180.083 33.8863C180.393 33.5983 180.641 33.2288 180.809 32.8072C181.194 31.5497 181.361 30.2126 181.299 28.8766C181.281 27.2829 181.159 25.6932 180.933 24.122C180.693 22.2835 180.426 20.6247 180.132 19.156L186.401 17.3492ZM178.315 52.3013L182.563 47.2824L186.82 52.3329L182.563 57.3729L178.315 52.3013Z" fill="white"/>
<path opacity="0.87" d="M219.02 8.08289H192.1C191.559 8.08289 191.121 8.60324 191.121 9.24513V47.1556C191.121 47.7975 191.559 48.3178 192.1 48.3178H219.02C219.561 48.3178 220 47.7975 220 47.1556V9.24513C220 8.60324 219.561 8.08289 219.02 8.08289Z" fill="#F9B547"/>
<path d="M195.137 34.0328C196.232 34.2969 197.408 34.5505 198.699 34.7724C199.768 34.9829 200.848 35.096 201.932 35.1105C205.182 35.1105 207.444 34.6984 208.699 33.8637C209.235 33.6005 209.697 33.1635 210.032 32.6028C210.368 32.0421 210.563 31.3805 210.596 30.694C210.596 29.0562 209.59 27.0382 207.577 24.6186C205.088 21.7561 202.337 19.2328 199.376 17.0956L203.08 10.4708C206.889 13.0633 210.359 16.2986 213.383 20.0752C215.936 23.3929 217.216 26.9149 217.222 30.6411C217.222 34.8675 215.913 38.0126 213.294 40.0765C210.676 42.1404 206.99 43.1582 202.234 43.13C200.993 43.1326 199.752 43.0409 198.521 42.8553C197.345 42.6651 196.214 42.4432 195.137 42.1685V34.0328Z" fill="white"/>
</g>
<defs>
<clipPath id="clip0_225_2">
<rect width="220" height="59" fill="white"/>
</clipPath>
</defs>
</svg>
